<svg version="1.2" xmlns="http://www.w3.org/2000/svg" viewBox="0 0 362 361" width="362" height="361">
	<title>html-svg</title>
	<style>
		.s0 { fill: #000000 } 
		.s1 { fill: #0b0b0b } 
		.s2 { fill: #ebebeb } 
		.s3 { fill: #ffffff } 
	</style>
	<path id="Layer" class="s0" d="m308.6 34.8l-23.3 260.3-104.5 29-104.1-28.9-23.3-260.4z"/>
	<path id="Layer" class="s1" d="m181 302.9l84.4-23.4 19.9-222.4h-104.3z"/>
	<path id="Layer" class="s2" d="m135.8 121.9h45.2v-31.9h-80.1l0.8 8.6 7.8 88h71.5v-32h-42.3zm7.2 80.6h-32l4.5 50.2 65.4 18.2 0.1-0.1v-33.2h-0.1l-35.6-9.6z"/>
	<path id="Layer" class="s3" d="m180.9 186.6h39.3l-3.7 41.4-35.6 9.6v33.2l65.5-18.1 0.4-5.4 7.5-84.1 0.8-8.6h-74.2zm0-64.7v0.1h77.1l0.7-7.2 1.4-16.2 0.8-8.5h-80c0 0 0 31.8 0 31.8z"/>
</svg>